<mxfile host="app.diagrams.net" modified="2023-12-18T11:44:10.005Z" agent="Mozilla/5.0 (Windows NT 10.0; Win64; x64) AppleWebKit/537.36 (KHTML, like Gecko) Chrome/120.0.0.0 Safari/537.36" etag="H55cpoZpbhMYaLt8fZpE" version="22.1.11" type="device">
  <diagram name="Trang-1" id="0WO5GU0G65QzY9PaGddy">
    <mxGraphModel dx="2048" dy="1768" grid="1" gridSize="10" guides="1" tooltips="1" connect="1" arrows="1" fold="1" page="1" pageScale="1" pageWidth="827" pageHeight="1169" math="0" shadow="0">
      <root>
        <mxCell id="0" />
        <mxCell id="1" parent="0" />
        <mxCell id="iwRgpt_lp4PybGUuHrSf-8" value="User" style="whiteSpace=wrap;html=1;align=center;" parent="1" vertex="1">
          <mxGeometry x="40" y="310" width="100" height="40" as="geometry" />
        </mxCell>
        <mxCell id="iwRgpt_lp4PybGUuHrSf-9" value="Phim" style="whiteSpace=wrap;html=1;align=center;" parent="1" vertex="1">
          <mxGeometry x="540" y="310" width="100" height="40" as="geometry" />
        </mxCell>
        <mxCell id="iwRgpt_lp4PybGUuHrSf-10" value="Mã phim" style="ellipse;whiteSpace=wrap;html=1;align=center;fontStyle=4;" parent="1" vertex="1">
          <mxGeometry x="745" y="285" width="90" height="30" as="geometry" />
        </mxCell>
        <mxCell id="iwRgpt_lp4PybGUuHrSf-11" value="Tên phim" style="ellipse;whiteSpace=wrap;html=1;align=center;" parent="1" vertex="1">
          <mxGeometry x="755" y="325" width="80" height="25" as="geometry" />
        </mxCell>
        <mxCell id="iwRgpt_lp4PybGUuHrSf-12" value="Nước sản xuất" style="ellipse;whiteSpace=wrap;html=1;align=center;" parent="1" vertex="1">
          <mxGeometry x="750" y="360" width="100" height="25" as="geometry" />
        </mxCell>
        <mxCell id="iwRgpt_lp4PybGUuHrSf-13" value="Hãng sản xuất" style="ellipse;whiteSpace=wrap;html=1;align=center;" parent="1" vertex="1">
          <mxGeometry x="740" y="395" width="100" height="30" as="geometry" />
        </mxCell>
        <mxCell id="iwRgpt_lp4PybGUuHrSf-14" value="Đạo diễn" style="ellipse;whiteSpace=wrap;html=1;align=center;" parent="1" vertex="1">
          <mxGeometry x="735" y="440" width="100" height="30" as="geometry" />
        </mxCell>
        <mxCell id="iwRgpt_lp4PybGUuHrSf-15" value="Ngày chiếu" style="ellipse;whiteSpace=wrap;html=1;align=center;" parent="1" vertex="1">
          <mxGeometry x="735" y="490" width="100" height="30" as="geometry" />
        </mxCell>
        <mxCell id="iwRgpt_lp4PybGUuHrSf-16" value="Thời lượng" style="ellipse;whiteSpace=wrap;html=1;align=center;" parent="1" vertex="1">
          <mxGeometry x="540" y="450" width="100" height="30" as="geometry" />
        </mxCell>
        <mxCell id="iwRgpt_lp4PybGUuHrSf-17" value="Diễn viên" style="ellipse;whiteSpace=wrap;html=1;align=center;" parent="1" vertex="1">
          <mxGeometry x="610" y="500" width="100" height="30" as="geometry" />
        </mxCell>
        <mxCell id="iwRgpt_lp4PybGUuHrSf-18" value="Poster" style="ellipse;whiteSpace=wrap;html=1;align=center;" parent="1" vertex="1">
          <mxGeometry x="680" y="540" width="100" height="30" as="geometry" />
        </mxCell>
        <mxCell id="iwRgpt_lp4PybGUuHrSf-19" value="" style="endArrow=none;html=1;rounded=0;entryX=1;entryY=0.25;entryDx=0;entryDy=0;exitX=0;exitY=1;exitDx=0;exitDy=0;" parent="1" source="iwRgpt_lp4PybGUuHrSf-10" target="iwRgpt_lp4PybGUuHrSf-9" edge="1">
          <mxGeometry relative="1" as="geometry">
            <mxPoint x="390" y="380" as="sourcePoint" />
            <mxPoint x="550" y="380" as="targetPoint" />
          </mxGeometry>
        </mxCell>
        <mxCell id="iwRgpt_lp4PybGUuHrSf-20" value="" style="endArrow=none;html=1;rounded=0;entryX=1;entryY=0.5;entryDx=0;entryDy=0;exitX=0;exitY=1;exitDx=0;exitDy=0;" parent="1" source="iwRgpt_lp4PybGUuHrSf-11" target="iwRgpt_lp4PybGUuHrSf-9" edge="1">
          <mxGeometry relative="1" as="geometry">
            <mxPoint x="486" y="401" as="sourcePoint" />
            <mxPoint x="568" y="351" as="targetPoint" />
          </mxGeometry>
        </mxCell>
        <mxCell id="iwRgpt_lp4PybGUuHrSf-23" value="" style="endArrow=none;html=1;rounded=0;entryX=1;entryY=0.5;entryDx=0;entryDy=0;" parent="1" source="iwRgpt_lp4PybGUuHrSf-12" target="iwRgpt_lp4PybGUuHrSf-9" edge="1">
          <mxGeometry relative="1" as="geometry">
            <mxPoint x="712" y="266" as="sourcePoint" />
            <mxPoint x="660" y="330" as="targetPoint" />
          </mxGeometry>
        </mxCell>
        <mxCell id="iwRgpt_lp4PybGUuHrSf-24" value="" style="endArrow=none;html=1;rounded=0;entryX=1;entryY=0.5;entryDx=0;entryDy=0;" parent="1" source="iwRgpt_lp4PybGUuHrSf-13" target="iwRgpt_lp4PybGUuHrSf-9" edge="1">
          <mxGeometry relative="1" as="geometry">
            <mxPoint x="722" y="276" as="sourcePoint" />
            <mxPoint x="670" y="340" as="targetPoint" />
          </mxGeometry>
        </mxCell>
        <mxCell id="iwRgpt_lp4PybGUuHrSf-25" value="" style="endArrow=none;html=1;rounded=0;entryX=1;entryY=0.5;entryDx=0;entryDy=0;exitX=0.083;exitY=0.3;exitDx=0;exitDy=0;exitPerimeter=0;" parent="1" source="iwRgpt_lp4PybGUuHrSf-14" target="iwRgpt_lp4PybGUuHrSf-9" edge="1">
          <mxGeometry relative="1" as="geometry">
            <mxPoint x="724" y="339" as="sourcePoint" />
            <mxPoint x="660" y="330" as="targetPoint" />
          </mxGeometry>
        </mxCell>
        <mxCell id="iwRgpt_lp4PybGUuHrSf-26" value="" style="endArrow=none;html=1;rounded=0;entryX=1;entryY=0.75;entryDx=0;entryDy=0;exitX=0.063;exitY=0.167;exitDx=0;exitDy=0;exitPerimeter=0;" parent="1" source="iwRgpt_lp4PybGUuHrSf-15" target="iwRgpt_lp4PybGUuHrSf-9" edge="1">
          <mxGeometry relative="1" as="geometry">
            <mxPoint x="734" y="349" as="sourcePoint" />
            <mxPoint x="670" y="340" as="targetPoint" />
          </mxGeometry>
        </mxCell>
        <mxCell id="iwRgpt_lp4PybGUuHrSf-27" value="" style="endArrow=none;html=1;rounded=0;entryX=1;entryY=1;entryDx=0;entryDy=0;exitX=0.5;exitY=0;exitDx=0;exitDy=0;" parent="1" source="iwRgpt_lp4PybGUuHrSf-18" target="iwRgpt_lp4PybGUuHrSf-9" edge="1">
          <mxGeometry relative="1" as="geometry">
            <mxPoint x="740" y="560" as="sourcePoint" />
            <mxPoint x="660" y="340" as="targetPoint" />
          </mxGeometry>
        </mxCell>
        <mxCell id="iwRgpt_lp4PybGUuHrSf-28" value="" style="endArrow=none;html=1;rounded=0;entryX=0.83;entryY=1.025;entryDx=0;entryDy=0;exitX=0.5;exitY=0;exitDx=0;exitDy=0;entryPerimeter=0;" parent="1" source="iwRgpt_lp4PybGUuHrSf-17" target="iwRgpt_lp4PybGUuHrSf-9" edge="1">
          <mxGeometry relative="1" as="geometry">
            <mxPoint x="726" y="425" as="sourcePoint" />
            <mxPoint x="670" y="350" as="targetPoint" />
          </mxGeometry>
        </mxCell>
        <mxCell id="iwRgpt_lp4PybGUuHrSf-29" value="" style="endArrow=none;html=1;rounded=0;entryX=0.75;entryY=1;entryDx=0;entryDy=0;exitX=0.5;exitY=0;exitDx=0;exitDy=0;" parent="1" source="iwRgpt_lp4PybGUuHrSf-16" target="iwRgpt_lp4PybGUuHrSf-9" edge="1">
          <mxGeometry relative="1" as="geometry">
            <mxPoint x="736" y="435" as="sourcePoint" />
            <mxPoint x="680" y="360" as="targetPoint" />
          </mxGeometry>
        </mxCell>
        <mxCell id="iwRgpt_lp4PybGUuHrSf-30" value="Ngày bán" style="ellipse;whiteSpace=wrap;html=1;align=center;" parent="1" vertex="1">
          <mxGeometry x="270" y="370" width="100" height="40" as="geometry" />
        </mxCell>
        <mxCell id="iwRgpt_lp4PybGUuHrSf-32" value="" style="endArrow=none;html=1;rounded=0;exitX=0.5;exitY=1;exitDx=0;exitDy=0;entryX=0.5;entryY=0;entryDx=0;entryDy=0;" parent="1" source="iwRgpt_lp4PybGUuHrSf-124" target="iwRgpt_lp4PybGUuHrSf-30" edge="1">
          <mxGeometry relative="1" as="geometry">
            <mxPoint x="343" y="345" as="sourcePoint" />
            <mxPoint x="500" y="360" as="targetPoint" />
          </mxGeometry>
        </mxCell>
        <mxCell id="iwRgpt_lp4PybGUuHrSf-33" value="Bán" style="shape=rhombus;perimeter=rhombusPerimeter;whiteSpace=wrap;html=1;align=center;" parent="1" vertex="1">
          <mxGeometry x="190" y="315" width="70" height="30" as="geometry" />
        </mxCell>
        <mxCell id="iwRgpt_lp4PybGUuHrSf-34" value="Có" style="shape=rhombus;perimeter=rhombusPerimeter;whiteSpace=wrap;html=1;align=center;" parent="1" vertex="1">
          <mxGeometry x="430" y="315" width="60" height="30" as="geometry" />
        </mxCell>
        <mxCell id="iwRgpt_lp4PybGUuHrSf-42" value="UserName" style="ellipse;whiteSpace=wrap;html=1;align=center;" parent="1" vertex="1">
          <mxGeometry x="-200" y="262.5" width="100" height="40" as="geometry" />
        </mxCell>
        <mxCell id="iwRgpt_lp4PybGUuHrSf-43" value="Passwords" style="ellipse;whiteSpace=wrap;html=1;align=center;" parent="1" vertex="1">
          <mxGeometry x="-200" y="310" width="100" height="40" as="geometry" />
        </mxCell>
        <mxCell id="iwRgpt_lp4PybGUuHrSf-45" value="LoginName" style="ellipse;whiteSpace=wrap;html=1;align=center;" parent="1" vertex="1">
          <mxGeometry x="-200" y="360" width="100" height="40" as="geometry" />
        </mxCell>
        <mxCell id="iwRgpt_lp4PybGUuHrSf-46" value="NgayVaoLam" style="ellipse;whiteSpace=wrap;html=1;align=center;" parent="1" vertex="1">
          <mxGeometry x="-190" y="410" width="100" height="40" as="geometry" />
        </mxCell>
        <mxCell id="iwRgpt_lp4PybGUuHrSf-47" value="DiaChi" style="ellipse;whiteSpace=wrap;html=1;align=center;" parent="1" vertex="1">
          <mxGeometry x="-180" y="460" width="100" height="40" as="geometry" />
        </mxCell>
        <mxCell id="iwRgpt_lp4PybGUuHrSf-48" value="GioiTinh" style="ellipse;whiteSpace=wrap;html=1;align=center;" parent="1" vertex="1">
          <mxGeometry x="-130" y="510" width="100" height="40" as="geometry" />
        </mxCell>
        <mxCell id="iwRgpt_lp4PybGUuHrSf-49" value="" style="endArrow=none;html=1;rounded=0;exitX=1;exitY=1;exitDx=0;exitDy=0;entryX=0.342;entryY=0.02;entryDx=0;entryDy=0;entryPerimeter=0;" parent="1" source="iwRgpt_lp4PybGUuHrSf-86" target="iwRgpt_lp4PybGUuHrSf-8" edge="1">
          <mxGeometry relative="1" as="geometry">
            <mxPoint x="34.200000000000045" y="198.79999999999995" as="sourcePoint" />
            <mxPoint x="460" y="380" as="targetPoint" />
          </mxGeometry>
        </mxCell>
        <mxCell id="iwRgpt_lp4PybGUuHrSf-50" value="" style="endArrow=none;html=1;rounded=0;entryX=0.078;entryY=0.02;entryDx=0;entryDy=0;entryPerimeter=0;exitX=1;exitY=0.5;exitDx=0;exitDy=0;" parent="1" source="iwRgpt_lp4PybGUuHrSf-42" target="iwRgpt_lp4PybGUuHrSf-8" edge="1">
          <mxGeometry relative="1" as="geometry">
            <mxPoint x="300" y="380" as="sourcePoint" />
            <mxPoint x="460" y="380" as="targetPoint" />
          </mxGeometry>
        </mxCell>
        <mxCell id="iwRgpt_lp4PybGUuHrSf-51" value="" style="endArrow=none;html=1;rounded=0;exitX=1;exitY=0.5;exitDx=0;exitDy=0;entryX=0;entryY=0.25;entryDx=0;entryDy=0;" parent="1" source="iwRgpt_lp4PybGUuHrSf-43" target="iwRgpt_lp4PybGUuHrSf-8" edge="1">
          <mxGeometry relative="1" as="geometry">
            <mxPoint x="300" y="380" as="sourcePoint" />
            <mxPoint x="460" y="380" as="targetPoint" />
          </mxGeometry>
        </mxCell>
        <mxCell id="iwRgpt_lp4PybGUuHrSf-52" value="" style="endArrow=none;html=1;rounded=0;entryX=0;entryY=0.5;entryDx=0;entryDy=0;exitX=1;exitY=0.5;exitDx=0;exitDy=0;" parent="1" source="iwRgpt_lp4PybGUuHrSf-45" target="iwRgpt_lp4PybGUuHrSf-8" edge="1">
          <mxGeometry relative="1" as="geometry">
            <mxPoint x="-20" y="298" as="sourcePoint" />
            <mxPoint x="50" y="330" as="targetPoint" />
          </mxGeometry>
        </mxCell>
        <mxCell id="iwRgpt_lp4PybGUuHrSf-53" value="" style="endArrow=none;html=1;rounded=0;exitX=1.018;exitY=0.34;exitDx=0;exitDy=0;exitPerimeter=0;entryX=0;entryY=1;entryDx=0;entryDy=0;" parent="1" source="iwRgpt_lp4PybGUuHrSf-46" target="iwRgpt_lp4PybGUuHrSf-8" edge="1">
          <mxGeometry relative="1" as="geometry">
            <mxPoint x="300" y="380" as="sourcePoint" />
            <mxPoint x="460" y="380" as="targetPoint" />
          </mxGeometry>
        </mxCell>
        <mxCell id="iwRgpt_lp4PybGUuHrSf-54" value="" style="endArrow=none;html=1;rounded=0;exitX=0.942;exitY=0.33;exitDx=0;exitDy=0;exitPerimeter=0;" parent="1" source="iwRgpt_lp4PybGUuHrSf-47" target="iwRgpt_lp4PybGUuHrSf-8" edge="1">
          <mxGeometry relative="1" as="geometry">
            <mxPoint x="300" y="380" as="sourcePoint" />
            <mxPoint x="460" y="380" as="targetPoint" />
          </mxGeometry>
        </mxCell>
        <mxCell id="iwRgpt_lp4PybGUuHrSf-55" value="" style="endArrow=none;html=1;rounded=0;exitX=1;exitY=0;exitDx=0;exitDy=0;entryX=0.5;entryY=1;entryDx=0;entryDy=0;" parent="1" source="iwRgpt_lp4PybGUuHrSf-48" target="iwRgpt_lp4PybGUuHrSf-8" edge="1">
          <mxGeometry relative="1" as="geometry">
            <mxPoint x="300" y="380" as="sourcePoint" />
            <mxPoint x="460" y="380" as="targetPoint" />
          </mxGeometry>
        </mxCell>
        <mxCell id="iwRgpt_lp4PybGUuHrSf-56" value="UserRole" style="shape=rhombus;perimeter=rhombusPerimeter;whiteSpace=wrap;html=1;align=center;" parent="1" vertex="1">
          <mxGeometry x="90" y="390" width="90" height="40" as="geometry" />
        </mxCell>
        <mxCell id="iwRgpt_lp4PybGUuHrSf-57" value="" style="endArrow=none;html=1;rounded=0;exitX=1;exitY=0.5;exitDx=0;exitDy=0;entryX=0;entryY=0.5;entryDx=0;entryDy=0;" parent="1" source="iwRgpt_lp4PybGUuHrSf-124" target="iwRgpt_lp4PybGUuHrSf-34" edge="1">
          <mxGeometry relative="1" as="geometry">
            <mxPoint x="386" y="330" as="sourcePoint" />
            <mxPoint x="460" y="380" as="targetPoint" />
          </mxGeometry>
        </mxCell>
        <mxCell id="iwRgpt_lp4PybGUuHrSf-77" value="(1,n)" style="edgeLabel;html=1;align=center;verticalAlign=middle;resizable=0;points=[];" parent="iwRgpt_lp4PybGUuHrSf-57" vertex="1" connectable="0">
          <mxGeometry x="-0.0296" relative="1" as="geometry">
            <mxPoint x="-9" y="10" as="offset" />
          </mxGeometry>
        </mxCell>
        <mxCell id="iwRgpt_lp4PybGUuHrSf-59" value="Role" style="whiteSpace=wrap;html=1;align=center;" parent="1" vertex="1">
          <mxGeometry x="90" y="460" width="100" height="40" as="geometry" />
        </mxCell>
        <mxCell id="iwRgpt_lp4PybGUuHrSf-62" value="" style="endArrow=none;html=1;rounded=0;entryX=0.426;entryY=0.95;entryDx=0;entryDy=0;entryPerimeter=0;exitX=0.574;exitY=0.035;exitDx=0;exitDy=0;exitPerimeter=0;" parent="1" source="iwRgpt_lp4PybGUuHrSf-87" target="iwRgpt_lp4PybGUuHrSf-59" edge="1">
          <mxGeometry relative="1" as="geometry">
            <mxPoint x="-6.599999999999909" y="640.8000000000002" as="sourcePoint" />
            <mxPoint x="460" y="560" as="targetPoint" />
          </mxGeometry>
        </mxCell>
        <mxCell id="iwRgpt_lp4PybGUuHrSf-63" value="" style="endArrow=none;html=1;rounded=0;exitX=0.618;exitY=1.01;exitDx=0;exitDy=0;exitPerimeter=0;entryX=0.5;entryY=0;entryDx=0;entryDy=0;" parent="1" source="iwRgpt_lp4PybGUuHrSf-59" target="iwRgpt_lp4PybGUuHrSf-66" edge="1">
          <mxGeometry relative="1" as="geometry">
            <mxPoint x="300" y="560" as="sourcePoint" />
            <mxPoint x="120.59999999999991" y="650" as="targetPoint" />
          </mxGeometry>
        </mxCell>
        <mxCell id="iwRgpt_lp4PybGUuHrSf-66" value="RoleName" style="ellipse;whiteSpace=wrap;html=1;align=center;" parent="1" vertex="1">
          <mxGeometry x="140" y="520" width="85" height="40" as="geometry" />
        </mxCell>
        <mxCell id="iwRgpt_lp4PybGUuHrSf-70" value="(0,n)" style="endArrow=none;html=1;rounded=0;exitX=0.5;exitY=1;exitDx=0;exitDy=0;entryX=0.5;entryY=0;entryDx=0;entryDy=0;" parent="1" source="iwRgpt_lp4PybGUuHrSf-56" target="iwRgpt_lp4PybGUuHrSf-59" edge="1">
          <mxGeometry x="0.4597" y="17" relative="1" as="geometry">
            <mxPoint x="300" y="460" as="sourcePoint" />
            <mxPoint x="460" y="460" as="targetPoint" />
            <mxPoint as="offset" />
          </mxGeometry>
        </mxCell>
        <mxCell id="iwRgpt_lp4PybGUuHrSf-71" value="" style="endArrow=none;html=1;rounded=0;entryX=0.5;entryY=0;entryDx=0;entryDy=0;exitX=0.75;exitY=1;exitDx=0;exitDy=0;" parent="1" source="iwRgpt_lp4PybGUuHrSf-8" target="iwRgpt_lp4PybGUuHrSf-56" edge="1">
          <mxGeometry relative="1" as="geometry">
            <mxPoint x="110" y="340" as="sourcePoint" />
            <mxPoint x="460" y="460" as="targetPoint" />
          </mxGeometry>
        </mxCell>
        <mxCell id="iwRgpt_lp4PybGUuHrSf-72" value="(1,1)" style="edgeLabel;html=1;align=center;verticalAlign=middle;resizable=0;points=[];" parent="iwRgpt_lp4PybGUuHrSf-71" vertex="1" connectable="0">
          <mxGeometry x="-0.3351" y="-2" relative="1" as="geometry">
            <mxPoint x="19" y="-20" as="offset" />
          </mxGeometry>
        </mxCell>
        <mxCell id="iwRgpt_lp4PybGUuHrSf-73" value="" style="endArrow=none;html=1;rounded=0;exitX=1;exitY=0.5;exitDx=0;exitDy=0;entryX=0;entryY=0.5;entryDx=0;entryDy=0;" parent="1" source="iwRgpt_lp4PybGUuHrSf-8" target="iwRgpt_lp4PybGUuHrSf-33" edge="1">
          <mxGeometry relative="1" as="geometry">
            <mxPoint x="220" y="470" as="sourcePoint" />
            <mxPoint x="380" y="470" as="targetPoint" />
          </mxGeometry>
        </mxCell>
        <mxCell id="iwRgpt_lp4PybGUuHrSf-74" value="(0,n)" style="edgeLabel;html=1;align=center;verticalAlign=middle;resizable=0;points=[];" parent="iwRgpt_lp4PybGUuHrSf-73" vertex="1" connectable="0">
          <mxGeometry x="0.048" y="-2" relative="1" as="geometry">
            <mxPoint x="-6" y="-12" as="offset" />
          </mxGeometry>
        </mxCell>
        <mxCell id="iwRgpt_lp4PybGUuHrSf-75" value="" style="endArrow=none;html=1;rounded=0;exitX=1;exitY=0.5;exitDx=0;exitDy=0;entryX=0;entryY=0.5;entryDx=0;entryDy=0;" parent="1" source="iwRgpt_lp4PybGUuHrSf-33" target="iwRgpt_lp4PybGUuHrSf-124" edge="1">
          <mxGeometry relative="1" as="geometry">
            <mxPoint x="220" y="470" as="sourcePoint" />
            <mxPoint x="300" y="330" as="targetPoint" />
          </mxGeometry>
        </mxCell>
        <mxCell id="iwRgpt_lp4PybGUuHrSf-76" value="(1,1)" style="edgeLabel;html=1;align=center;verticalAlign=middle;resizable=0;points=[];" parent="iwRgpt_lp4PybGUuHrSf-75" vertex="1" connectable="0">
          <mxGeometry x="0.21" y="-1" relative="1" as="geometry">
            <mxPoint y="-11" as="offset" />
          </mxGeometry>
        </mxCell>
        <mxCell id="iwRgpt_lp4PybGUuHrSf-78" value="" style="endArrow=none;html=1;rounded=0;exitX=1;exitY=0.5;exitDx=0;exitDy=0;entryX=0;entryY=0.5;entryDx=0;entryDy=0;" parent="1" source="iwRgpt_lp4PybGUuHrSf-34" target="iwRgpt_lp4PybGUuHrSf-9" edge="1">
          <mxGeometry relative="1" as="geometry">
            <mxPoint x="396" y="340" as="sourcePoint" />
            <mxPoint x="450" y="340" as="targetPoint" />
          </mxGeometry>
        </mxCell>
        <mxCell id="iwRgpt_lp4PybGUuHrSf-193" value="(1,1)" style="edgeLabel;html=1;align=center;verticalAlign=middle;resizable=0;points=[];" parent="iwRgpt_lp4PybGUuHrSf-78" vertex="1" connectable="0">
          <mxGeometry x="0.4" y="-1" relative="1" as="geometry">
            <mxPoint y="9" as="offset" />
          </mxGeometry>
        </mxCell>
        <mxCell id="iwRgpt_lp4PybGUuHrSf-80" value="Món ăn" style="whiteSpace=wrap;html=1;align=center;" parent="1" vertex="1">
          <mxGeometry x="20" y="-80" width="100" height="40" as="geometry" />
        </mxCell>
        <mxCell id="iwRgpt_lp4PybGUuHrSf-86" value="UserId" style="ellipse;whiteSpace=wrap;html=1;align=center;fontStyle=4;" parent="1" vertex="1">
          <mxGeometry x="-180" y="210" width="100" height="40" as="geometry" />
        </mxCell>
        <mxCell id="iwRgpt_lp4PybGUuHrSf-87" value="RoleId" style="ellipse;whiteSpace=wrap;html=1;align=center;fontStyle=4;" parent="1" vertex="1">
          <mxGeometry x="20" y="530" width="90" height="30" as="geometry" />
        </mxCell>
        <mxCell id="iwRgpt_lp4PybGUuHrSf-88" value="Mã món ăn" style="ellipse;whiteSpace=wrap;html=1;align=center;fontStyle=4;" parent="1" vertex="1">
          <mxGeometry x="30" y="-160" width="100" height="40" as="geometry" />
        </mxCell>
        <mxCell id="iwRgpt_lp4PybGUuHrSf-89" value="Tên món ăn" style="ellipse;whiteSpace=wrap;html=1;align=center;" parent="1" vertex="1">
          <mxGeometry x="-80" y="-160" width="100" height="40" as="geometry" />
        </mxCell>
        <mxCell id="iwRgpt_lp4PybGUuHrSf-90" value="Đơn giá" style="ellipse;whiteSpace=wrap;html=1;align=center;" parent="1" vertex="1">
          <mxGeometry x="-120" y="-110" width="100" height="40" as="geometry" />
        </mxCell>
        <mxCell id="iwRgpt_lp4PybGUuHrSf-91" value="Kích cỡ" style="ellipse;whiteSpace=wrap;html=1;align=center;" parent="1" vertex="1">
          <mxGeometry x="-110" y="-60" width="100" height="40" as="geometry" />
        </mxCell>
        <mxCell id="iwRgpt_lp4PybGUuHrSf-92" value="Loại món ăn" style="ellipse;whiteSpace=wrap;html=1;align=center;" parent="1" vertex="1">
          <mxGeometry x="-110" y="-5" width="100" height="40" as="geometry" />
        </mxCell>
        <mxCell id="iwRgpt_lp4PybGUuHrSf-96" value="" style="endArrow=none;html=1;rounded=0;exitX=1;exitY=0.5;exitDx=0;exitDy=0;entryX=0;entryY=1;entryDx=0;entryDy=0;" parent="1" source="iwRgpt_lp4PybGUuHrSf-92" target="iwRgpt_lp4PybGUuHrSf-80" edge="1">
          <mxGeometry relative="1" as="geometry">
            <mxPoint x="220" y="-30" as="sourcePoint" />
            <mxPoint x="380" y="-30" as="targetPoint" />
          </mxGeometry>
        </mxCell>
        <mxCell id="iwRgpt_lp4PybGUuHrSf-97" value="" style="endArrow=none;html=1;rounded=0;exitX=1;exitY=0.5;exitDx=0;exitDy=0;entryX=0;entryY=0.5;entryDx=0;entryDy=0;" parent="1" source="iwRgpt_lp4PybGUuHrSf-91" target="iwRgpt_lp4PybGUuHrSf-80" edge="1">
          <mxGeometry relative="1" as="geometry">
            <mxPoint x="220" y="-30" as="sourcePoint" />
            <mxPoint x="380" y="-30" as="targetPoint" />
          </mxGeometry>
        </mxCell>
        <mxCell id="iwRgpt_lp4PybGUuHrSf-98" value="" style="endArrow=none;html=1;rounded=0;exitX=1;exitY=1;exitDx=0;exitDy=0;entryX=0;entryY=0;entryDx=0;entryDy=0;" parent="1" source="iwRgpt_lp4PybGUuHrSf-90" target="iwRgpt_lp4PybGUuHrSf-80" edge="1">
          <mxGeometry relative="1" as="geometry">
            <mxPoint x="220" y="-30" as="sourcePoint" />
            <mxPoint x="380" y="-30" as="targetPoint" />
          </mxGeometry>
        </mxCell>
        <mxCell id="iwRgpt_lp4PybGUuHrSf-99" value="" style="endArrow=none;html=1;rounded=0;exitX=0.626;exitY=0.975;exitDx=0;exitDy=0;exitPerimeter=0;entryX=0.386;entryY=0.065;entryDx=0;entryDy=0;entryPerimeter=0;" parent="1" source="iwRgpt_lp4PybGUuHrSf-89" target="iwRgpt_lp4PybGUuHrSf-80" edge="1">
          <mxGeometry relative="1" as="geometry">
            <mxPoint x="220" y="-30" as="sourcePoint" />
            <mxPoint x="380" y="-30" as="targetPoint" />
          </mxGeometry>
        </mxCell>
        <mxCell id="iwRgpt_lp4PybGUuHrSf-100" value="" style="endArrow=none;html=1;rounded=0;exitX=0.5;exitY=1;exitDx=0;exitDy=0;entryX=0.75;entryY=0;entryDx=0;entryDy=0;" parent="1" source="iwRgpt_lp4PybGUuHrSf-88" target="iwRgpt_lp4PybGUuHrSf-80" edge="1">
          <mxGeometry relative="1" as="geometry">
            <mxPoint x="220" y="-30" as="sourcePoint" />
            <mxPoint x="380" y="-30" as="targetPoint" />
          </mxGeometry>
        </mxCell>
        <mxCell id="iwRgpt_lp4PybGUuHrSf-101" value="Hóa đơn" style="whiteSpace=wrap;html=1;align=center;" parent="1" vertex="1">
          <mxGeometry x="160" y="160" width="100" height="40" as="geometry" />
        </mxCell>
        <mxCell id="iwRgpt_lp4PybGUuHrSf-103" value="Chi tiết hóa đơn" style="shape=ext;margin=3;double=1;whiteSpace=wrap;html=1;align=center;" parent="1" vertex="1">
          <mxGeometry x="180" y="20" width="100" height="40" as="geometry" />
        </mxCell>
        <mxCell id="iwRgpt_lp4PybGUuHrSf-104" value="Có" style="shape=rhombus;perimeter=rhombusPerimeter;whiteSpace=wrap;html=1;align=center;" parent="1" vertex="1">
          <mxGeometry x="110" y="-20" width="50" height="30" as="geometry" />
        </mxCell>
        <mxCell id="iwRgpt_lp4PybGUuHrSf-105" value="Có" style="shape=rhombus;perimeter=rhombusPerimeter;whiteSpace=wrap;html=1;align=center;" parent="1" vertex="1">
          <mxGeometry x="180" y="90" width="50" height="30" as="geometry" />
        </mxCell>
        <mxCell id="iwRgpt_lp4PybGUuHrSf-106" value="" style="endArrow=none;html=1;rounded=0;exitX=0.75;exitY=1;exitDx=0;exitDy=0;entryX=0.5;entryY=0;entryDx=0;entryDy=0;" parent="1" source="iwRgpt_lp4PybGUuHrSf-80" target="iwRgpt_lp4PybGUuHrSf-104" edge="1">
          <mxGeometry relative="1" as="geometry">
            <mxPoint x="220" y="70" as="sourcePoint" />
            <mxPoint x="380" y="70" as="targetPoint" />
          </mxGeometry>
        </mxCell>
        <mxCell id="iwRgpt_lp4PybGUuHrSf-192" value="(0,n)" style="edgeLabel;html=1;align=center;verticalAlign=middle;resizable=0;points=[];" parent="iwRgpt_lp4PybGUuHrSf-106" vertex="1" connectable="0">
          <mxGeometry x="-0.1356" y="-1" relative="1" as="geometry">
            <mxPoint x="-32" y="-8" as="offset" />
          </mxGeometry>
        </mxCell>
        <mxCell id="iwRgpt_lp4PybGUuHrSf-107" value="" style="endArrow=none;html=1;rounded=0;exitX=1;exitY=1;exitDx=0;exitDy=0;entryX=0;entryY=0;entryDx=0;entryDy=0;" parent="1" source="iwRgpt_lp4PybGUuHrSf-104" target="iwRgpt_lp4PybGUuHrSf-103" edge="1">
          <mxGeometry relative="1" as="geometry">
            <mxPoint x="220" y="70" as="sourcePoint" />
            <mxPoint x="380" y="70" as="targetPoint" />
          </mxGeometry>
        </mxCell>
        <mxCell id="iwRgpt_lp4PybGUuHrSf-188" value="(1,1)" style="edgeLabel;html=1;align=center;verticalAlign=middle;resizable=0;points=[];" parent="iwRgpt_lp4PybGUuHrSf-107" vertex="1" connectable="0">
          <mxGeometry x="-0.3208" y="-4" relative="1" as="geometry">
            <mxPoint x="10" y="17" as="offset" />
          </mxGeometry>
        </mxCell>
        <mxCell id="iwRgpt_lp4PybGUuHrSf-108" value="" style="endArrow=none;html=1;rounded=0;exitX=0.25;exitY=1;exitDx=0;exitDy=0;entryX=0.5;entryY=0;entryDx=0;entryDy=0;" parent="1" source="iwRgpt_lp4PybGUuHrSf-103" target="iwRgpt_lp4PybGUuHrSf-105" edge="1">
          <mxGeometry relative="1" as="geometry">
            <mxPoint x="220" y="70" as="sourcePoint" />
            <mxPoint x="380" y="70" as="targetPoint" />
          </mxGeometry>
        </mxCell>
        <mxCell id="iwRgpt_lp4PybGUuHrSf-189" value="(1,1)" style="edgeLabel;html=1;align=center;verticalAlign=middle;resizable=0;points=[];" parent="iwRgpt_lp4PybGUuHrSf-108" vertex="1" connectable="0">
          <mxGeometry x="-0.0235" relative="1" as="geometry">
            <mxPoint x="20" y="-4" as="offset" />
          </mxGeometry>
        </mxCell>
        <mxCell id="iwRgpt_lp4PybGUuHrSf-109" value="" style="endArrow=none;html=1;rounded=0;exitX=0.5;exitY=0;exitDx=0;exitDy=0;entryX=0.5;entryY=1;entryDx=0;entryDy=0;" parent="1" source="iwRgpt_lp4PybGUuHrSf-101" target="iwRgpt_lp4PybGUuHrSf-105" edge="1">
          <mxGeometry relative="1" as="geometry">
            <mxPoint x="220" y="70" as="sourcePoint" />
            <mxPoint x="380" y="70" as="targetPoint" />
          </mxGeometry>
        </mxCell>
        <mxCell id="iwRgpt_lp4PybGUuHrSf-191" value="(1,n)" style="edgeLabel;html=1;align=center;verticalAlign=middle;resizable=0;points=[];" parent="iwRgpt_lp4PybGUuHrSf-109" vertex="1" connectable="0">
          <mxGeometry x="0.327" relative="1" as="geometry">
            <mxPoint x="8" y="17" as="offset" />
          </mxGeometry>
        </mxCell>
        <mxCell id="iwRgpt_lp4PybGUuHrSf-110" value="Tạo" style="shape=rhombus;perimeter=rhombusPerimeter;whiteSpace=wrap;html=1;align=center;" parent="1" vertex="1">
          <mxGeometry x="120" y="232.5" width="50" height="30" as="geometry" />
        </mxCell>
        <mxCell id="iwRgpt_lp4PybGUuHrSf-111" value="" style="endArrow=none;html=1;rounded=0;exitX=0.75;exitY=0;exitDx=0;exitDy=0;entryX=0.5;entryY=1;entryDx=0;entryDy=0;" parent="1" source="iwRgpt_lp4PybGUuHrSf-8" target="iwRgpt_lp4PybGUuHrSf-110" edge="1">
          <mxGeometry relative="1" as="geometry">
            <mxPoint x="220" y="170" as="sourcePoint" />
            <mxPoint x="380" y="170" as="targetPoint" />
          </mxGeometry>
        </mxCell>
        <mxCell id="E_4Is1q-8LOBrV0SB2UT-1" value="(1,1)" style="edgeLabel;html=1;align=center;verticalAlign=middle;resizable=0;points=[];" vertex="1" connectable="0" parent="iwRgpt_lp4PybGUuHrSf-111">
          <mxGeometry x="-0.1571" y="-1" relative="1" as="geometry">
            <mxPoint x="-29" y="10" as="offset" />
          </mxGeometry>
        </mxCell>
        <mxCell id="iwRgpt_lp4PybGUuHrSf-112" value="" style="endArrow=none;html=1;rounded=0;exitX=0.5;exitY=0;exitDx=0;exitDy=0;entryX=0;entryY=1;entryDx=0;entryDy=0;" parent="1" source="iwRgpt_lp4PybGUuHrSf-110" target="iwRgpt_lp4PybGUuHrSf-101" edge="1">
          <mxGeometry relative="1" as="geometry">
            <mxPoint x="220" y="170" as="sourcePoint" />
            <mxPoint x="380" y="170" as="targetPoint" />
          </mxGeometry>
        </mxCell>
        <mxCell id="E_4Is1q-8LOBrV0SB2UT-2" value="(1,1)" style="edgeLabel;html=1;align=center;verticalAlign=middle;resizable=0;points=[];" vertex="1" connectable="0" parent="iwRgpt_lp4PybGUuHrSf-112">
          <mxGeometry x="0.4931" y="4" relative="1" as="geometry">
            <mxPoint x="17" y="4" as="offset" />
          </mxGeometry>
        </mxCell>
        <mxCell id="iwRgpt_lp4PybGUuHrSf-113" value="Mã hóa đơn" style="ellipse;whiteSpace=wrap;html=1;align=center;fontStyle=4;" parent="1" vertex="1">
          <mxGeometry x="30" y="70" width="100" height="40" as="geometry" />
        </mxCell>
        <mxCell id="iwRgpt_lp4PybGUuHrSf-114" value="Ngày xuất" style="ellipse;whiteSpace=wrap;html=1;align=center;" parent="1" vertex="1">
          <mxGeometry y="120" width="100" height="40" as="geometry" />
        </mxCell>
        <mxCell id="iwRgpt_lp4PybGUuHrSf-115" value="Tổng tiền" style="ellipse;whiteSpace=wrap;html=1;align=center;" parent="1" vertex="1">
          <mxGeometry x="-10" y="170" width="100" height="40" as="geometry" />
        </mxCell>
        <mxCell id="iwRgpt_lp4PybGUuHrSf-116" value="" style="endArrow=none;html=1;rounded=0;exitX=1;exitY=1;exitDx=0;exitDy=0;entryX=0.078;entryY=0.005;entryDx=0;entryDy=0;entryPerimeter=0;" parent="1" source="iwRgpt_lp4PybGUuHrSf-113" target="iwRgpt_lp4PybGUuHrSf-101" edge="1">
          <mxGeometry relative="1" as="geometry">
            <mxPoint x="220" y="170" as="sourcePoint" />
            <mxPoint x="380" y="170" as="targetPoint" />
          </mxGeometry>
        </mxCell>
        <mxCell id="iwRgpt_lp4PybGUuHrSf-117" value="" style="endArrow=none;html=1;rounded=0;exitX=0.986;exitY=0.685;exitDx=0;exitDy=0;exitPerimeter=0;entryX=0;entryY=0.25;entryDx=0;entryDy=0;" parent="1" source="iwRgpt_lp4PybGUuHrSf-114" target="iwRgpt_lp4PybGUuHrSf-101" edge="1">
          <mxGeometry relative="1" as="geometry">
            <mxPoint x="220" y="170" as="sourcePoint" />
            <mxPoint x="380" y="170" as="targetPoint" />
          </mxGeometry>
        </mxCell>
        <mxCell id="iwRgpt_lp4PybGUuHrSf-118" value="" style="endArrow=none;html=1;rounded=0;exitX=0.97;exitY=0.695;exitDx=0;exitDy=0;exitPerimeter=0;entryX=0;entryY=0.5;entryDx=0;entryDy=0;" parent="1" source="iwRgpt_lp4PybGUuHrSf-115" target="iwRgpt_lp4PybGUuHrSf-101" edge="1">
          <mxGeometry relative="1" as="geometry">
            <mxPoint x="220" y="170" as="sourcePoint" />
            <mxPoint x="380" y="170" as="targetPoint" />
          </mxGeometry>
        </mxCell>
        <mxCell id="iwRgpt_lp4PybGUuHrSf-119" value="Số lượng" style="ellipse;whiteSpace=wrap;html=1;align=center;" parent="1" vertex="1">
          <mxGeometry x="196" y="-70" width="84" height="35" as="geometry" />
        </mxCell>
        <mxCell id="iwRgpt_lp4PybGUuHrSf-120" value="Đơn giá" style="ellipse;whiteSpace=wrap;html=1;align=center;" parent="1" vertex="1">
          <mxGeometry x="270" y="-35" width="100" height="40" as="geometry" />
        </mxCell>
        <mxCell id="iwRgpt_lp4PybGUuHrSf-121" value="" style="endArrow=none;html=1;rounded=0;entryX=0.302;entryY=1.005;entryDx=0;entryDy=0;entryPerimeter=0;exitX=0.582;exitY=0.045;exitDx=0;exitDy=0;exitPerimeter=0;" parent="1" source="iwRgpt_lp4PybGUuHrSf-103" target="iwRgpt_lp4PybGUuHrSf-119" edge="1">
          <mxGeometry relative="1" as="geometry">
            <mxPoint x="220" y="170" as="sourcePoint" />
            <mxPoint x="380" y="170" as="targetPoint" />
          </mxGeometry>
        </mxCell>
        <mxCell id="iwRgpt_lp4PybGUuHrSf-122" value="" style="endArrow=none;html=1;rounded=0;entryX=0;entryY=1;entryDx=0;entryDy=0;exitX=0.75;exitY=0;exitDx=0;exitDy=0;" parent="1" source="iwRgpt_lp4PybGUuHrSf-103" target="iwRgpt_lp4PybGUuHrSf-120" edge="1">
          <mxGeometry relative="1" as="geometry">
            <mxPoint x="350" y="50" as="sourcePoint" />
            <mxPoint x="380" y="170" as="targetPoint" />
          </mxGeometry>
        </mxCell>
        <mxCell id="iwRgpt_lp4PybGUuHrSf-123" value="Thể loại" style="whiteSpace=wrap;html=1;align=center;" parent="1" vertex="1">
          <mxGeometry x="364" y="470" width="100" height="40" as="geometry" />
        </mxCell>
        <mxCell id="iwRgpt_lp4PybGUuHrSf-124" value="Vé" style="whiteSpace=wrap;html=1;align=center;" parent="1" vertex="1">
          <mxGeometry x="306" y="315" width="74" height="30" as="geometry" />
        </mxCell>
        <mxCell id="iwRgpt_lp4PybGUuHrSf-125" value="Mã thể loại" style="ellipse;whiteSpace=wrap;html=1;align=center;fontStyle=4;" parent="1" vertex="1">
          <mxGeometry x="293" y="530" width="100" height="40" as="geometry" />
        </mxCell>
        <mxCell id="iwRgpt_lp4PybGUuHrSf-126" value="Tên thể loại" style="ellipse;whiteSpace=wrap;html=1;align=center;" parent="1" vertex="1">
          <mxGeometry x="400" y="530" width="100" height="40" as="geometry" />
        </mxCell>
        <mxCell id="iwRgpt_lp4PybGUuHrSf-128" value="" style="endArrow=none;html=1;rounded=0;entryX=0.25;entryY=1;entryDx=0;entryDy=0;exitX=0.5;exitY=0;exitDx=0;exitDy=0;" parent="1" source="iwRgpt_lp4PybGUuHrSf-125" target="iwRgpt_lp4PybGUuHrSf-123" edge="1">
          <mxGeometry relative="1" as="geometry">
            <mxPoint x="270" y="540" as="sourcePoint" />
            <mxPoint x="430" y="540" as="targetPoint" />
          </mxGeometry>
        </mxCell>
        <mxCell id="iwRgpt_lp4PybGUuHrSf-129" value="" style="endArrow=none;html=1;rounded=0;entryX=0.75;entryY=1;entryDx=0;entryDy=0;exitX=0.5;exitY=0;exitDx=0;exitDy=0;" parent="1" source="iwRgpt_lp4PybGUuHrSf-126" target="iwRgpt_lp4PybGUuHrSf-123" edge="1">
          <mxGeometry relative="1" as="geometry">
            <mxPoint x="270" y="540" as="sourcePoint" />
            <mxPoint x="430" y="540" as="targetPoint" />
          </mxGeometry>
        </mxCell>
        <mxCell id="iwRgpt_lp4PybGUuHrSf-130" value="Thuộc" style="shape=rhombus;perimeter=rhombusPerimeter;whiteSpace=wrap;html=1;align=center;" parent="1" vertex="1">
          <mxGeometry x="435" y="400" width="90" height="40" as="geometry" />
        </mxCell>
        <mxCell id="iwRgpt_lp4PybGUuHrSf-131" value="" style="endArrow=none;html=1;rounded=0;entryX=0;entryY=1;entryDx=0;entryDy=0;exitX=0.5;exitY=0;exitDx=0;exitDy=0;" parent="1" source="iwRgpt_lp4PybGUuHrSf-123" target="iwRgpt_lp4PybGUuHrSf-130" edge="1">
          <mxGeometry relative="1" as="geometry">
            <mxPoint x="270" y="540" as="sourcePoint" />
            <mxPoint x="430" y="540" as="targetPoint" />
          </mxGeometry>
        </mxCell>
        <mxCell id="iwRgpt_lp4PybGUuHrSf-194" value="(0,n)" style="edgeLabel;html=1;align=center;verticalAlign=middle;resizable=0;points=[];" parent="iwRgpt_lp4PybGUuHrSf-131" vertex="1" connectable="0">
          <mxGeometry x="-0.405" y="-3" relative="1" as="geometry">
            <mxPoint x="-26" y="13" as="offset" />
          </mxGeometry>
        </mxCell>
        <mxCell id="iwRgpt_lp4PybGUuHrSf-132" value="" style="endArrow=none;html=1;rounded=0;exitX=0.25;exitY=1;exitDx=0;exitDy=0;entryX=1;entryY=0;entryDx=0;entryDy=0;" parent="1" source="iwRgpt_lp4PybGUuHrSf-9" target="iwRgpt_lp4PybGUuHrSf-130" edge="1">
          <mxGeometry relative="1" as="geometry">
            <mxPoint x="270" y="540" as="sourcePoint" />
            <mxPoint x="430" y="540" as="targetPoint" />
          </mxGeometry>
        </mxCell>
        <mxCell id="iwRgpt_lp4PybGUuHrSf-195" value="(1,n)" style="edgeLabel;html=1;align=center;verticalAlign=middle;resizable=0;points=[];" parent="iwRgpt_lp4PybGUuHrSf-132" vertex="1" connectable="0">
          <mxGeometry x="-0.5141" y="2" relative="1" as="geometry">
            <mxPoint x="18" y="-13" as="offset" />
          </mxGeometry>
        </mxCell>
        <mxCell id="iwRgpt_lp4PybGUuHrSf-133" value="Lịch chiếu" style="whiteSpace=wrap;html=1;align=center;" parent="1" vertex="1">
          <mxGeometry x="640" y="80" width="100" height="40" as="geometry" />
        </mxCell>
        <mxCell id="iwRgpt_lp4PybGUuHrSf-134" value="Mã lịch chiếu" style="ellipse;whiteSpace=wrap;html=1;align=center;fontStyle=4;" parent="1" vertex="1">
          <mxGeometry x="835" width="100" height="40" as="geometry" />
        </mxCell>
        <mxCell id="iwRgpt_lp4PybGUuHrSf-137" value="Giá vé" style="ellipse;whiteSpace=wrap;html=1;align=center;" parent="1" vertex="1">
          <mxGeometry x="835" y="50" width="100" height="40" as="geometry" />
        </mxCell>
        <mxCell id="iwRgpt_lp4PybGUuHrSf-138" value="Giờ kết thúc" style="ellipse;whiteSpace=wrap;html=1;align=center;" parent="1" vertex="1">
          <mxGeometry x="835" y="100" width="100" height="40" as="geometry" />
        </mxCell>
        <mxCell id="iwRgpt_lp4PybGUuHrSf-139" value="Giờ chiếu" style="ellipse;whiteSpace=wrap;html=1;align=center;" parent="1" vertex="1">
          <mxGeometry x="835" y="150" width="100" height="40" as="geometry" />
        </mxCell>
        <mxCell id="iwRgpt_lp4PybGUuHrSf-140" value="Trạng thái" style="ellipse;whiteSpace=wrap;html=1;align=center;" parent="1" vertex="1">
          <mxGeometry x="827" y="200" width="100" height="40" as="geometry" />
        </mxCell>
        <mxCell id="iwRgpt_lp4PybGUuHrSf-143" value="" style="endArrow=none;html=1;rounded=0;entryX=0;entryY=0.5;entryDx=0;entryDy=0;exitX=1;exitY=0.5;exitDx=0;exitDy=0;" parent="1" source="iwRgpt_lp4PybGUuHrSf-133" target="iwRgpt_lp4PybGUuHrSf-134" edge="1">
          <mxGeometry relative="1" as="geometry">
            <mxPoint x="290" y="160" as="sourcePoint" />
            <mxPoint x="450" y="160" as="targetPoint" />
          </mxGeometry>
        </mxCell>
        <mxCell id="iwRgpt_lp4PybGUuHrSf-144" value="" style="endArrow=none;html=1;rounded=0;entryX=0;entryY=0.5;entryDx=0;entryDy=0;exitX=1;exitY=0.5;exitDx=0;exitDy=0;" parent="1" source="iwRgpt_lp4PybGUuHrSf-133" target="iwRgpt_lp4PybGUuHrSf-137" edge="1">
          <mxGeometry relative="1" as="geometry">
            <mxPoint x="290" y="160" as="sourcePoint" />
            <mxPoint x="450" y="160" as="targetPoint" />
          </mxGeometry>
        </mxCell>
        <mxCell id="iwRgpt_lp4PybGUuHrSf-145" value="" style="endArrow=none;html=1;rounded=0;exitX=1;exitY=0.5;exitDx=0;exitDy=0;entryX=0;entryY=0.5;entryDx=0;entryDy=0;" parent="1" source="iwRgpt_lp4PybGUuHrSf-133" target="iwRgpt_lp4PybGUuHrSf-138" edge="1">
          <mxGeometry relative="1" as="geometry">
            <mxPoint x="780" y="70" as="sourcePoint" />
            <mxPoint x="940" y="70" as="targetPoint" />
          </mxGeometry>
        </mxCell>
        <mxCell id="iwRgpt_lp4PybGUuHrSf-146" value="" style="endArrow=none;html=1;rounded=0;exitX=1;exitY=0.5;exitDx=0;exitDy=0;entryX=0;entryY=0.5;entryDx=0;entryDy=0;" parent="1" source="iwRgpt_lp4PybGUuHrSf-133" target="iwRgpt_lp4PybGUuHrSf-139" edge="1">
          <mxGeometry relative="1" as="geometry">
            <mxPoint x="800" y="130" as="sourcePoint" />
            <mxPoint x="960" y="130" as="targetPoint" />
          </mxGeometry>
        </mxCell>
        <mxCell id="iwRgpt_lp4PybGUuHrSf-147" value="" style="endArrow=none;html=1;rounded=0;exitX=1;exitY=0.75;exitDx=0;exitDy=0;entryX=0;entryY=0.5;entryDx=0;entryDy=0;" parent="1" source="iwRgpt_lp4PybGUuHrSf-133" target="iwRgpt_lp4PybGUuHrSf-140" edge="1">
          <mxGeometry relative="1" as="geometry">
            <mxPoint x="770" y="150" as="sourcePoint" />
            <mxPoint x="930" y="150" as="targetPoint" />
          </mxGeometry>
        </mxCell>
        <mxCell id="iwRgpt_lp4PybGUuHrSf-150" value="Phòng chiếu" style="whiteSpace=wrap;html=1;align=center;" parent="1" vertex="1">
          <mxGeometry x="700" y="-120" width="100" height="40" as="geometry" />
        </mxCell>
        <mxCell id="iwRgpt_lp4PybGUuHrSf-151" value="Mã phòng chiếu" style="ellipse;whiteSpace=wrap;html=1;align=center;fontStyle=4;" parent="1" vertex="1">
          <mxGeometry x="710" y="-200" width="100" height="40" as="geometry" />
        </mxCell>
        <mxCell id="iwRgpt_lp4PybGUuHrSf-152" value="Tên phòng chiếu" style="ellipse;whiteSpace=wrap;html=1;align=center;" parent="1" vertex="1">
          <mxGeometry x="827" y="-180" width="100" height="40" as="geometry" />
        </mxCell>
        <mxCell id="iwRgpt_lp4PybGUuHrSf-153" value="Tổng số ghế" style="ellipse;whiteSpace=wrap;html=1;align=center;" parent="1" vertex="1">
          <mxGeometry x="840" y="-130" width="100" height="40" as="geometry" />
        </mxCell>
        <mxCell id="iwRgpt_lp4PybGUuHrSf-154" value="" style="endArrow=none;html=1;rounded=0;exitX=0.5;exitY=1;exitDx=0;exitDy=0;entryX=0.5;entryY=0;entryDx=0;entryDy=0;" parent="1" source="iwRgpt_lp4PybGUuHrSf-151" target="iwRgpt_lp4PybGUuHrSf-150" edge="1">
          <mxGeometry relative="1" as="geometry">
            <mxPoint x="650" y="-220" as="sourcePoint" />
            <mxPoint x="810" y="-220" as="targetPoint" />
          </mxGeometry>
        </mxCell>
        <mxCell id="iwRgpt_lp4PybGUuHrSf-155" value="" style="endArrow=none;html=1;rounded=0;entryX=0;entryY=1;entryDx=0;entryDy=0;exitX=0.84;exitY=-0.025;exitDx=0;exitDy=0;exitPerimeter=0;" parent="1" source="iwRgpt_lp4PybGUuHrSf-150" target="iwRgpt_lp4PybGUuHrSf-152" edge="1">
          <mxGeometry relative="1" as="geometry">
            <mxPoint x="710" y="-190" as="sourcePoint" />
            <mxPoint x="870" y="-190" as="targetPoint" />
          </mxGeometry>
        </mxCell>
        <mxCell id="iwRgpt_lp4PybGUuHrSf-156" value="" style="endArrow=none;html=1;rounded=0;exitX=1;exitY=0.5;exitDx=0;exitDy=0;" parent="1" source="iwRgpt_lp4PybGUuHrSf-150" target="iwRgpt_lp4PybGUuHrSf-153" edge="1">
          <mxGeometry relative="1" as="geometry">
            <mxPoint x="720" y="-170" as="sourcePoint" />
            <mxPoint x="880" y="-170" as="targetPoint" />
          </mxGeometry>
        </mxCell>
        <mxCell id="iwRgpt_lp4PybGUuHrSf-157" value="Ghế" style="whiteSpace=wrap;html=1;align=center;" parent="1" vertex="1">
          <mxGeometry x="414" y="-87.5" width="100" height="40" as="geometry" />
        </mxCell>
        <mxCell id="iwRgpt_lp4PybGUuHrSf-159" value="Mã ghế" style="ellipse;whiteSpace=wrap;html=1;align=center;fontStyle=4;" parent="1" vertex="1">
          <mxGeometry x="414" y="-150" width="100" height="40" as="geometry" />
        </mxCell>
        <mxCell id="iwRgpt_lp4PybGUuHrSf-160" value="" style="endArrow=none;html=1;rounded=0;exitX=0.5;exitY=1;exitDx=0;exitDy=0;entryX=0.5;entryY=0;entryDx=0;entryDy=0;" parent="1" source="iwRgpt_lp4PybGUuHrSf-159" target="iwRgpt_lp4PybGUuHrSf-157" edge="1">
          <mxGeometry relative="1" as="geometry">
            <mxPoint x="400" y="-160" as="sourcePoint" />
            <mxPoint x="560" y="-160" as="targetPoint" />
          </mxGeometry>
        </mxCell>
        <mxCell id="iwRgpt_lp4PybGUuHrSf-165" value="Thuộc" style="shape=rhombus;perimeter=rhombusPerimeter;whiteSpace=wrap;html=1;align=center;" parent="1" vertex="1">
          <mxGeometry x="580" y="-100" width="60" height="30" as="geometry" />
        </mxCell>
        <mxCell id="iwRgpt_lp4PybGUuHrSf-166" value="" style="endArrow=none;html=1;rounded=0;exitX=1;exitY=0.5;exitDx=0;exitDy=0;" parent="1" source="iwRgpt_lp4PybGUuHrSf-165" target="iwRgpt_lp4PybGUuHrSf-150" edge="1">
          <mxGeometry relative="1" as="geometry">
            <mxPoint x="290" y="40" as="sourcePoint" />
            <mxPoint x="450" y="40" as="targetPoint" />
          </mxGeometry>
        </mxCell>
        <mxCell id="iwRgpt_lp4PybGUuHrSf-199" value="(0,n)" style="edgeLabel;html=1;align=center;verticalAlign=middle;resizable=0;points=[];" parent="iwRgpt_lp4PybGUuHrSf-166" vertex="1" connectable="0">
          <mxGeometry x="0.3343" y="1" relative="1" as="geometry">
            <mxPoint x="2" y="-12" as="offset" />
          </mxGeometry>
        </mxCell>
        <mxCell id="iwRgpt_lp4PybGUuHrSf-167" value="" style="endArrow=none;html=1;rounded=0;exitX=1;exitY=0.5;exitDx=0;exitDy=0;entryX=0;entryY=1;entryDx=0;entryDy=0;" parent="1" source="iwRgpt_lp4PybGUuHrSf-157" target="iwRgpt_lp4PybGUuHrSf-165" edge="1">
          <mxGeometry relative="1" as="geometry">
            <mxPoint x="560" y="-80" as="sourcePoint" />
            <mxPoint x="720" y="-80" as="targetPoint" />
          </mxGeometry>
        </mxCell>
        <mxCell id="iwRgpt_lp4PybGUuHrSf-200" value="(1,1)" style="edgeLabel;html=1;align=center;verticalAlign=middle;resizable=0;points=[];" parent="iwRgpt_lp4PybGUuHrSf-167" vertex="1" connectable="0">
          <mxGeometry x="-0.3929" y="1" relative="1" as="geometry">
            <mxPoint x="-10" y="-6" as="offset" />
          </mxGeometry>
        </mxCell>
        <mxCell id="iwRgpt_lp4PybGUuHrSf-168" value="Ghế đặt" style="shape=rhombus;perimeter=rhombusPerimeter;whiteSpace=wrap;html=1;align=center;" parent="1" vertex="1">
          <mxGeometry x="525" y="5" width="70" height="30" as="geometry" />
        </mxCell>
        <mxCell id="iwRgpt_lp4PybGUuHrSf-169" value="" style="endArrow=none;html=1;rounded=0;entryX=0;entryY=0;entryDx=0;entryDy=0;exitX=1;exitY=1;exitDx=0;exitDy=0;" parent="1" source="iwRgpt_lp4PybGUuHrSf-168" target="iwRgpt_lp4PybGUuHrSf-133" edge="1">
          <mxGeometry relative="1" as="geometry">
            <mxPoint x="290" y="40" as="sourcePoint" />
            <mxPoint x="450" y="40" as="targetPoint" />
          </mxGeometry>
        </mxCell>
        <mxCell id="1EXmn5mUUReFVyRuUWmZ-8" value="(1,n)" style="edgeLabel;html=1;align=center;verticalAlign=middle;resizable=0;points=[];" parent="iwRgpt_lp4PybGUuHrSf-169" vertex="1" connectable="0">
          <mxGeometry x="0.4357" relative="1" as="geometry">
            <mxPoint x="16" y="-1" as="offset" />
          </mxGeometry>
        </mxCell>
        <mxCell id="iwRgpt_lp4PybGUuHrSf-170" value="" style="endArrow=none;html=1;rounded=0;entryX=0;entryY=0;entryDx=0;entryDy=0;exitX=0.75;exitY=1;exitDx=0;exitDy=0;" parent="1" source="iwRgpt_lp4PybGUuHrSf-157" target="iwRgpt_lp4PybGUuHrSf-168" edge="1">
          <mxGeometry relative="1" as="geometry">
            <mxPoint x="410" y="-30" as="sourcePoint" />
            <mxPoint x="570" y="-30" as="targetPoint" />
          </mxGeometry>
        </mxCell>
        <mxCell id="1EXmn5mUUReFVyRuUWmZ-9" value="(1,n)" style="edgeLabel;html=1;align=center;verticalAlign=middle;resizable=0;points=[];" parent="iwRgpt_lp4PybGUuHrSf-170" vertex="1" connectable="0">
          <mxGeometry x="-0.6473" y="2" relative="1" as="geometry">
            <mxPoint x="13" y="-1" as="offset" />
          </mxGeometry>
        </mxCell>
        <mxCell id="iwRgpt_lp4PybGUuHrSf-172" value="Thuộc" style="shape=rhombus;perimeter=rhombusPerimeter;whiteSpace=wrap;html=1;align=center;" parent="1" vertex="1">
          <mxGeometry x="380" y="100" width="70" height="40" as="geometry" />
        </mxCell>
        <mxCell id="iwRgpt_lp4PybGUuHrSf-174" value="" style="endArrow=none;html=1;rounded=0;exitX=0.622;exitY=0.033;exitDx=0;exitDy=0;exitPerimeter=0;entryX=0.5;entryY=1;entryDx=0;entryDy=0;" parent="1" source="iwRgpt_lp4PybGUuHrSf-124" target="iwRgpt_lp4PybGUuHrSf-172" edge="1">
          <mxGeometry relative="1" as="geometry">
            <mxPoint x="290" y="160" as="sourcePoint" />
            <mxPoint x="450" y="160" as="targetPoint" />
          </mxGeometry>
        </mxCell>
        <mxCell id="iwRgpt_lp4PybGUuHrSf-196" value="(1,n)" style="edgeLabel;html=1;align=center;verticalAlign=middle;resizable=0;points=[];" parent="iwRgpt_lp4PybGUuHrSf-174" vertex="1" connectable="0">
          <mxGeometry x="-0.636" y="-2" relative="1" as="geometry">
            <mxPoint x="-25" y="18" as="offset" />
          </mxGeometry>
        </mxCell>
        <mxCell id="iwRgpt_lp4PybGUuHrSf-175" value="" style="endArrow=none;html=1;rounded=0;entryX=0.5;entryY=1;entryDx=0;entryDy=0;exitX=0.592;exitY=0.15;exitDx=0;exitDy=0;exitPerimeter=0;" parent="1" source="iwRgpt_lp4PybGUuHrSf-172" target="iwRgpt_lp4PybGUuHrSf-157" edge="1">
          <mxGeometry relative="1" as="geometry">
            <mxPoint x="290" y="160" as="sourcePoint" />
            <mxPoint x="450" y="160" as="targetPoint" />
          </mxGeometry>
        </mxCell>
        <mxCell id="iwRgpt_lp4PybGUuHrSf-197" value="(0,1)" style="edgeLabel;html=1;align=center;verticalAlign=middle;resizable=0;points=[];" parent="iwRgpt_lp4PybGUuHrSf-175" vertex="1" connectable="0">
          <mxGeometry x="0.6769" y="1" relative="1" as="geometry">
            <mxPoint x="-9" y="-19" as="offset" />
          </mxGeometry>
        </mxCell>
        <mxCell id="iwRgpt_lp4PybGUuHrSf-176" value="Thuộc" style="shape=rhombus;perimeter=rhombusPerimeter;whiteSpace=wrap;html=1;align=center;" parent="1" vertex="1">
          <mxGeometry x="470" y="190" width="70" height="40" as="geometry" />
        </mxCell>
        <mxCell id="iwRgpt_lp4PybGUuHrSf-177" value="" style="endArrow=none;html=1;rounded=0;entryX=0;entryY=1;entryDx=0;entryDy=0;exitX=1;exitY=0;exitDx=0;exitDy=0;" parent="1" source="iwRgpt_lp4PybGUuHrSf-176" target="iwRgpt_lp4PybGUuHrSf-133" edge="1">
          <mxGeometry relative="1" as="geometry">
            <mxPoint x="290" y="160" as="sourcePoint" />
            <mxPoint x="450" y="160" as="targetPoint" />
          </mxGeometry>
        </mxCell>
        <mxCell id="1EXmn5mUUReFVyRuUWmZ-2" value="(0,n)" style="edgeLabel;html=1;align=center;verticalAlign=middle;resizable=0;points=[];" parent="iwRgpt_lp4PybGUuHrSf-177" vertex="1" connectable="0">
          <mxGeometry x="0.6105" y="-3" relative="1" as="geometry">
            <mxPoint x="17" y="-8" as="offset" />
          </mxGeometry>
        </mxCell>
        <mxCell id="iwRgpt_lp4PybGUuHrSf-178" value="" style="endArrow=none;html=1;rounded=0;exitX=0.9;exitY=0.024;exitDx=0;exitDy=0;entryX=0;entryY=1;entryDx=0;entryDy=0;exitPerimeter=0;" parent="1" source="iwRgpt_lp4PybGUuHrSf-124" target="iwRgpt_lp4PybGUuHrSf-176" edge="1">
          <mxGeometry relative="1" as="geometry">
            <mxPoint x="290" y="160" as="sourcePoint" />
            <mxPoint x="450" y="160" as="targetPoint" />
          </mxGeometry>
        </mxCell>
        <mxCell id="1EXmn5mUUReFVyRuUWmZ-1" value="(1,1)" style="edgeLabel;html=1;align=center;verticalAlign=middle;resizable=0;points=[];" parent="iwRgpt_lp4PybGUuHrSf-178" vertex="1" connectable="0">
          <mxGeometry x="-0.7394" y="2" relative="1" as="geometry">
            <mxPoint y="15" as="offset" />
          </mxGeometry>
        </mxCell>
        <mxCell id="iwRgpt_lp4PybGUuHrSf-179" value="Có" style="shape=rhombus;perimeter=rhombusPerimeter;whiteSpace=wrap;html=1;align=center;" parent="1" vertex="1">
          <mxGeometry x="688.5" y="-20" width="83" height="40" as="geometry" />
        </mxCell>
        <mxCell id="iwRgpt_lp4PybGUuHrSf-180" value="" style="endArrow=none;html=1;rounded=0;entryX=0.5;entryY=1;entryDx=0;entryDy=0;exitX=0.5;exitY=0;exitDx=0;exitDy=0;" parent="1" source="iwRgpt_lp4PybGUuHrSf-179" target="iwRgpt_lp4PybGUuHrSf-150" edge="1">
          <mxGeometry relative="1" as="geometry">
            <mxPoint x="290" y="40" as="sourcePoint" />
            <mxPoint x="450" y="40" as="targetPoint" />
          </mxGeometry>
        </mxCell>
        <mxCell id="1EXmn5mUUReFVyRuUWmZ-7" value="(0,n)" style="edgeLabel;html=1;align=center;verticalAlign=middle;resizable=0;points=[];" parent="iwRgpt_lp4PybGUuHrSf-180" vertex="1" connectable="0">
          <mxGeometry x="0.2062" y="2" relative="1" as="geometry">
            <mxPoint x="17" y="-14" as="offset" />
          </mxGeometry>
        </mxCell>
        <mxCell id="iwRgpt_lp4PybGUuHrSf-181" value="" style="endArrow=none;html=1;rounded=0;entryX=0.59;entryY=-0.025;entryDx=0;entryDy=0;entryPerimeter=0;exitX=0.5;exitY=1;exitDx=0;exitDy=0;" parent="1" source="iwRgpt_lp4PybGUuHrSf-179" target="iwRgpt_lp4PybGUuHrSf-133" edge="1">
          <mxGeometry relative="1" as="geometry">
            <mxPoint x="290" y="40" as="sourcePoint" />
            <mxPoint x="450" y="40" as="targetPoint" />
          </mxGeometry>
        </mxCell>
        <mxCell id="1EXmn5mUUReFVyRuUWmZ-6" value="(1,1)" style="edgeLabel;html=1;align=center;verticalAlign=middle;resizable=0;points=[];" parent="iwRgpt_lp4PybGUuHrSf-181" vertex="1" connectable="0">
          <mxGeometry x="0.3174" y="-1" relative="1" as="geometry">
            <mxPoint x="14" y="12" as="offset" />
          </mxGeometry>
        </mxCell>
        <mxCell id="iwRgpt_lp4PybGUuHrSf-185" value="Được chiếu" style="shape=rhombus;perimeter=rhombusPerimeter;whiteSpace=wrap;html=1;align=center;" parent="1" vertex="1">
          <mxGeometry x="610" y="200" width="90" height="40" as="geometry" />
        </mxCell>
        <mxCell id="iwRgpt_lp4PybGUuHrSf-186" value="" style="endArrow=none;html=1;rounded=0;entryX=0.34;entryY=0.864;entryDx=0;entryDy=0;exitX=0.5;exitY=0;exitDx=0;exitDy=0;entryPerimeter=0;" parent="1" source="iwRgpt_lp4PybGUuHrSf-9" target="iwRgpt_lp4PybGUuHrSf-185" edge="1">
          <mxGeometry relative="1" as="geometry">
            <mxPoint x="290" y="290" as="sourcePoint" />
            <mxPoint x="450" y="290" as="targetPoint" />
          </mxGeometry>
        </mxCell>
        <mxCell id="1EXmn5mUUReFVyRuUWmZ-4" value="(0,n)" style="edgeLabel;html=1;align=center;verticalAlign=middle;resizable=0;points=[];" parent="iwRgpt_lp4PybGUuHrSf-186" vertex="1" connectable="0">
          <mxGeometry x="-0.1619" y="-1" relative="1" as="geometry">
            <mxPoint x="1" y="21" as="offset" />
          </mxGeometry>
        </mxCell>
        <mxCell id="iwRgpt_lp4PybGUuHrSf-187" value="" style="endArrow=none;html=1;rounded=0;entryX=0.5;entryY=1;entryDx=0;entryDy=0;exitX=0.5;exitY=0;exitDx=0;exitDy=0;" parent="1" source="iwRgpt_lp4PybGUuHrSf-185" target="iwRgpt_lp4PybGUuHrSf-133" edge="1">
          <mxGeometry relative="1" as="geometry">
            <mxPoint x="290" y="290" as="sourcePoint" />
            <mxPoint x="450" y="290" as="targetPoint" />
          </mxGeometry>
        </mxCell>
        <mxCell id="1EXmn5mUUReFVyRuUWmZ-5" value="(1,1)" style="edgeLabel;html=1;align=center;verticalAlign=middle;resizable=0;points=[];" parent="iwRgpt_lp4PybGUuHrSf-187" vertex="1" connectable="0">
          <mxGeometry x="0.6415" y="-1" relative="1" as="geometry">
            <mxPoint x="17" y="-6" as="offset" />
          </mxGeometry>
        </mxCell>
      </root>
    </mxGraphModel>
  </diagram>
</mxfile>
